<?xml version="1.0" standalone="no"?>
<!DOCTYPE svg PUBLIC "-//W3C//DTD SVG 20010904//EN"
 "http://www.w3.org/TR/2001/REC-SVG-20010904/DTD/svg10.dtd">
<svg version="1.0" xmlns="http://www.w3.org/2000/svg"
 width="347.000000pt" height="133.000000pt" viewBox="0 0 347.000000 133.000000"
 preserveAspectRatio="xMidYMid meet">

<g transform="translate(0.000000,133.000000) scale(0.100000,-0.100000)"
fill="#4A148C" stroke="none">
<path d="M615 1256 c-57 -14 -245 -91 -333 -135 -57 -29 -79 -52 -66 -72 10
-16 33 -10 115 32 l81 40 -7 -43 c-8 -53 -79 -262 -130 -383 -21 -49 -40 -111
-43 -137 -4 -46 -3 -48 21 -48 36 0 51 25 52 87 1 62 3 65 102 121 93 52 191
129 294 232 104 103 137 155 146 229 5 41 2 52 -16 70 -18 18 -32 21 -93 20
-40 0 -95 -6 -123 -13z m163 -58 c20 -20 13 -62 -18 -110 -67 -101 -363 -350
-399 -336 -4 2 10 50 31 107 22 57 48 142 58 189 11 56 24 90 36 99 61 44 263
80 292 51z"/>
<path d="M1520 997 c-140 -70 -260 -188 -260 -255 0 -18 -10 -21 -77 -28 -197
-20 -227 -8 -139 56 110 79 152 118 176 162 24 46 24 47 6 67 -16 18 -31 21
-90 20 -39 0 -93 -4 -121 -9 -27 -5 -72 -13 -100 -16 -49 -7 -185 -67 -185
-82 0 -21 23 -30 52 -20 16 6 31 9 33 7 2 -2 -7 -42 -21 -88 -31 -107 -32
-181 -3 -207 21 -19 21 -18 40 5 14 17 16 28 9 41 -6 10 -10 37 -10 59 0 48
44 194 64 210 31 26 218 51 260 35 27 -10 -8 -48 -115 -124 -54 -39 -105 -80
-114 -92 -21 -31 -19 -65 4 -78 28 -14 121 -12 236 5 97 14 100 14 121 -6 20
-19 30 -21 79 -14 83 10 174 54 219 106 41 46 106 176 106 210 0 29 -44 69
-77 69 -15 0 -57 -15 -93 -33z m98 -67 c17 0 16 -6 -20 -72 -17 -33 -49 -75
-71 -93 -44 -38 -93 -59 -102 -44 -4 5 -26 9 -51 9 -62 0 -59 24 17 104 75 81
172 135 199 111 9 -8 22 -15 28 -15z"/>
<path d="M1886 1009 c-114 -20 -136 -30 -136 -60 0 -26 28 -31 84 -14 82 25
82 25 95 -60 6 -42 11 -96 11 -120 0 -41 -2 -44 -34 -55 -54 -18 -148 16 -179
64 -18 28 -18 28 36 45 44 15 50 41 10 41 -55 0 -103 -20 -109 -45 -18 -72 69
-151 180 -162 60 -6 101 10 136 54 20 26 22 35 16 113 -4 47 -8 101 -9 120
l-2 35 67 5 c70 5 95 18 85 44 -9 22 -110 20 -251 -5z"/>
<path d="M2275 1000 c-28 -4 -73 -19 -100 -34 -42 -22 -52 -33 -66 -73 -10
-27 -27 -75 -39 -108 -24 -69 -35 -142 -26 -178 7 -30 53 -51 91 -41 74 18
185 113 185 158 0 27 -21 18 -70 -31 -25 -27 -64 -54 -85 -62 -35 -12 -40 -12
-52 4 -25 35 3 142 39 149 120 23 190 42 200 53 22 27 -5 33 -96 22 -48 -6
-90 -8 -93 -5 -3 2 -1 17 4 33 8 23 21 32 74 50 35 12 102 25 148 30 47 4 86
13 88 19 7 22 -100 29 -202 14z"/>
<path d="M3250 990 c-41 -10 -145 -26 -230 -35 -164 -18 -193 -26 -188 -53 3
-14 14 -17 66 -15 71 3 70 6 47 -97 -18 -82 -18 -112 -1 -135 12 -17 17 -17
45 -5 56 23 82 80 36 80 -15 0 -23 5 -21 13 2 6 9 44 16 83 l13 71 122 17 c68
9 134 16 148 16 32 0 72 51 55 68 -14 14 -14 14 -108 -8z"/>
<path d="M2592 976 c-131 -49 -182 -103 -182 -193 0 -60 17 -85 76 -109 62
-26 247 -10 306 26 l33 20 -27 0 c-15 0 -39 -5 -54 -10 -15 -6 -61 -11 -104
-11 -119 -1 -170 29 -170 98 0 56 62 108 164 138 58 17 79 14 70 -9 -9 -22 33
-30 61 -12 34 22 34 63 -1 76 -41 16 -105 11 -172 -14z"/>
<path d="M1245 484 c-74 -38 -95 -61 -95 -104 0 -48 25 -71 119 -110 92 -38
109 -50 86 -63 -35 -19 -78 -27 -92 -15 -18 15 -36 -3 -27 -27 6 -15 16 -17
66 -12 67 6 111 36 106 72 -3 20 -22 31 -151 90 -68 31 -85 56 -63 89 21 33
76 56 135 56 38 0 53 4 58 16 15 40 -69 45 -142 8z"/>
<path d="M1547 433 c-4 -3 -5 -21 -1 -39 6 -34 3 -38 -38 -48 -26 -6 -27 -4
-30 36 -4 60 -28 63 -28 3 0 -41 -3 -48 -30 -63 -37 -21 -40 -46 -5 -40 22 5
25 2 25 -23 0 -15 7 -35 16 -44 16 -15 18 -15 33 0 12 13 13 19 4 22 -7 3 -13
17 -13 32 0 20 7 31 27 40 29 14 43 3 43 -35 0 -12 5 -35 11 -53 9 -25 14 -29
25 -21 9 8 11 26 7 61 -4 32 -1 54 6 63 8 9 9 20 4 28 -4 7 -13 28 -18 47 -10
34 -25 48 -38 34z"/>
<path d="M1694 387 c-89 -61 -110 -147 -41 -171 34 -12 108 20 132 58 26 40
31 103 10 126 -25 28 -45 25 -101 -13z m69 -23 c12 -4 13 -12 6 -37 -12 -41
-37 -65 -77 -73 -30 -6 -32 -5 -32 21 0 19 12 39 36 61 37 35 43 38 67 28z"/>
<path d="M1900 389 c-70 -25 -86 -40 -71 -67 6 -11 11 -39 11 -61 0 -54 8 -71
35 -71 30 0 43 20 21 32 -20 11 -23 110 -3 126 18 14 100 23 116 13 11 -7 3
-16 -34 -40 -27 -17 -57 -33 -67 -37 -19 -6 -25 -34 -8 -34 18 0 114 51 138
73 65 60 -29 106 -138 66z"/>
</g>
</svg>